<svg xmlns="http://www.w3.org/2000/svg" viewBox="0 0 45 45">
  <defs>
    <style>
      .b0b52ba1-ceed-4185-8dfa-94ecd4d07f46 {
        fill: #49444a;
      }

      .e39717e6-0a33-40e9-b2f9-b1c813dbcbd8 {
        fill: #f6eeee;
      }
    </style>
  </defs>
  <g id="b3e9d40e-fc58-400a-b5fa-b4082d0bac5e" data-name="Layer 2">
    <g id="bdae70e3-429d-46eb-8952-8ef96943e665" data-name="Layer 1">
      <circle class="b0b52ba1-ceed-4185-8dfa-94ecd4d07f46" cx="22.5" cy="22.5" r="22.5"/>
      <path class="e39717e6-0a33-40e9-b2f9-b1c813dbcbd8" d="M6.47,8.76a1.48,1.48,0,0,0,0,3H9.74l3.87,15.47a2.92,2.92,0,0,0,2.86,2.21h16.9a2.9,2.9,0,0,0,2.81-2.16l3.82-14H15.32l.73,2.95H36.18L33.37,26.45H16.47L12.6,11a2.91,2.91,0,0,0-1-1.59,2.87,2.87,0,0,0-1.8-.62ZM31.53,29.39A4.43,4.43,0,1,0,36,33.82,4.44,4.44,0,0,0,31.53,29.39Zm-13.27,0a4.43,4.43,0,1,0,4.42,4.43A4.45,4.45,0,0,0,18.26,29.39Zm0,3a1.48,1.48,0,1,1-1.47,1.48A1.46,1.46,0,0,1,18.26,32.34Zm13.27,0a1.48,1.48,0,1,1-1.48,1.48A1.46,1.46,0,0,1,31.53,32.34Z"/>
    </g>
  </g>
</svg>
