<svg width="117" height="34" viewBox="0 0 117 34" fill="none" xmlns="http://www.w3.org/2000/svg">
<path d="M5.53137 0.786133C7.02161 0.786133 8.30676 1.31934 9.38684 2.38574C10.4259 3.43848 10.9454 4.72363 10.9454 6.24121L10.9659 7.20508H7.33606L7.35657 6.24121C7.35657 5.74902 7.172 5.3252 6.80286 4.96973C6.44739 4.58691 6.02356 4.39551 5.53137 4.39551C5.05286 4.39551 4.62219 4.58691 4.23938 4.96973C3.88391 5.31152 3.70618 5.73535 3.70618 6.24121V20.7402C3.70618 21.2461 3.88391 21.6699 4.23938 22.0117C4.62219 22.3809 5.05286 22.5654 5.53137 22.5654C6.02356 22.5654 6.44739 22.3809 6.80286 22.0117C7.172 21.6699 7.35657 21.2461 7.35657 20.7402L7.33606 12.9473H5.53137V9.31738H10.9659L10.9454 20.7402C10.9454 22.2441 10.4259 23.5225 9.38684 24.5752C8.30676 25.6416 7.02161 26.1748 5.53137 26.1748C4.02747 26.1748 2.74231 25.6416 1.6759 24.5752C0.623169 23.5361 0.0968018 22.2578 0.0968018 20.7402V6.24121C0.0968018 4.72363 0.623169 3.43848 1.6759 2.38574C2.75598 1.31934 4.04114 0.786133 5.53137 0.786133ZM17.2052 8.0459C18.6954 8.0459 19.9806 8.5791 21.0607 9.64551C22.1134 10.6982 22.6398 11.9834 22.6398 13.501V20.7402C22.6398 22.2441 22.1134 23.5225 21.0607 24.5752C19.9806 25.6416 18.6954 26.1748 17.2052 26.1748C15.715 26.1748 14.4298 25.6416 13.3497 24.5752C12.297 23.5361 11.7706 22.2578 11.7706 20.7402V13.501C11.7706 11.9834 12.297 10.6982 13.3497 9.64551C14.4298 8.5791 15.715 8.0459 17.2052 8.0459ZM17.2052 11.6553C16.7267 11.6553 16.296 11.8398 15.9132 12.209C15.5577 12.5645 15.38 12.9951 15.38 13.501V20.7402C15.38 21.2324 15.5577 21.6562 15.9132 22.0117C16.2823 22.3809 16.713 22.5654 17.2052 22.5654C17.6974 22.5654 18.1212 22.3809 18.4767 22.0117C18.8458 21.6699 19.0304 21.2461 19.0304 20.7402V13.501C19.0304 12.9951 18.8458 12.5645 18.4767 12.209C18.1212 11.8398 17.6974 11.6553 17.2052 11.6553ZM28.879 8.0459C30.3693 8.0459 31.6544 8.5791 32.7345 9.64551C33.7872 10.6982 34.3136 11.9834 34.3136 13.501V20.7402C34.3136 22.2441 33.7872 23.5225 32.7345 24.5752C31.6544 25.6416 30.3693 26.1748 28.879 26.1748C27.3888 26.1748 26.1036 25.6416 25.0236 24.5752C23.9708 23.5361 23.4445 22.2578 23.4445 20.7402V13.501C23.4445 11.9834 23.9708 10.6982 25.0236 9.64551C26.1036 8.5791 27.3888 8.0459 28.879 8.0459ZM28.879 11.6553C28.4005 11.6553 27.9698 11.8398 27.587 12.209C27.2316 12.5645 27.0538 12.9951 27.0538 13.501V20.7402C27.0538 21.2324 27.2316 21.6562 27.587 22.0117C27.9562 22.3809 28.3868 22.5654 28.879 22.5654C29.3712 22.5654 29.795 22.3809 30.1505 22.0117C30.5197 21.6699 30.7042 21.2461 30.7042 20.7402V13.501C30.7042 12.9951 30.5197 12.5645 30.1505 12.209C29.795 11.8398 29.3712 11.6553 28.879 11.6553ZM40.5529 26.2568C39.049 26.2568 37.7638 25.7305 36.6974 24.6777C35.6447 23.6113 35.1183 22.3262 35.1183 20.8223V13.5625C35.1183 12.0586 35.6447 10.7803 36.6974 9.72754C37.7501 8.6748 39.0353 8.14844 40.5529 8.14844H42.3575V0.868164H45.9874V26.2568H40.5529ZM40.5529 11.7373C40.0607 11.7373 39.63 11.915 39.2609 12.2705C38.8917 12.6533 38.7072 13.084 38.7072 13.5625V20.8223C38.7072 21.3281 38.8917 21.7588 39.2609 22.1143C39.63 22.4697 40.0607 22.6475 40.5529 22.6475H42.3575V11.7578L40.5529 11.7373ZM63.9415 0.786133C65.4318 0.786133 66.7169 1.31934 67.797 2.38574C68.8497 3.45215 69.3761 4.7373 69.3761 6.24121V13.0703H65.7462L65.7667 6.24121C65.7667 5.74902 65.589 5.3252 65.2335 4.96973C64.8644 4.58691 64.4337 4.39551 63.9415 4.39551C63.4357 4.39551 63.005 4.58691 62.6495 4.96973C62.2941 5.3252 62.1163 5.74902 62.1163 6.24121V20.7402C62.1163 21.2324 62.2941 21.6562 62.6495 22.0117C63.005 22.3809 63.4357 22.5654 63.9415 22.5654C64.4337 22.5654 64.8644 22.3809 65.2335 22.0117C65.589 21.6562 65.7667 21.2324 65.7667 20.7402L65.7462 17.1104H69.3761V20.7402C69.3761 22.2441 68.8497 23.5225 67.797 24.5752C66.7169 25.6416 65.4318 26.1748 63.9415 26.1748C62.424 26.1748 61.1388 25.6416 60.0861 24.5752C59.0333 23.5225 58.507 22.2441 58.507 20.7402V6.24121C58.507 4.7373 59.0333 3.45215 60.0861 2.38574C61.1661 1.31934 62.4513 0.786133 63.9415 0.786133ZM81.0499 26.1748H77.4406V13.5625C77.4406 13.084 77.2628 12.6533 76.9073 12.2705C76.5382 11.915 76.1075 11.7373 75.6154 11.7373L73.8107 11.7578V26.1748H70.1808V0.868164H73.8107V8.14844H75.6154C77.1329 8.14844 78.4181 8.6748 79.4708 9.72754C80.5236 10.7803 81.0499 12.0586 81.0499 13.5625V26.1748ZM87.2892 8.0459C88.7794 8.0459 90.0646 8.5791 91.1447 9.64551C92.1974 10.6982 92.7238 11.9834 92.7238 13.501V18.9766H85.464V20.7402C85.464 21.2324 85.6417 21.6562 85.9972 22.0117C86.3663 22.3809 86.797 22.5654 87.2892 22.5654C87.7814 22.5654 88.212 22.3809 88.5812 22.0117C88.9366 21.6562 89.1144 21.2324 89.1144 20.7402H92.7238C92.7238 22.2441 92.1974 23.5225 91.1447 24.5752C90.0646 25.6416 88.7794 26.1748 87.2892 26.1748C85.799 26.1748 84.5138 25.6416 83.4337 24.5752C82.381 23.5225 81.8546 22.2441 81.8546 20.7402V13.501C81.8546 11.9834 82.381 10.6982 83.4337 9.64551C84.5138 8.5791 85.799 8.0459 87.2892 8.0459ZM85.464 15.2852H89.1144V13.501C89.1144 12.9951 88.9366 12.5645 88.5812 12.209C88.212 11.8398 87.7814 11.6553 87.2892 11.6553C86.8107 11.6553 86.38 11.8398 85.9972 12.209C85.6417 12.5645 85.464 12.9951 85.464 13.501V15.2852ZM104.418 26.1748H98.963C97.4728 26.1748 96.1945 25.6416 95.1281 24.5752C94.0616 23.5088 93.5284 22.2305 93.5284 20.7402L93.549 20.6992C93.549 19.1816 94.0753 17.8965 95.1281 16.8438C96.1945 15.7773 97.4728 15.2441 98.963 15.2441C99.6193 15.2441 100.234 15.3467 100.809 15.5518V13.46C100.809 12.9541 100.624 12.5234 100.255 12.168C99.8859 11.7988 99.4552 11.6143 98.963 11.6143C98.4982 11.6143 98.0743 11.7988 97.6915 12.168C97.3361 12.5234 97.1583 12.9541 97.1583 13.46H93.549C93.549 11.9424 94.0753 10.6572 95.1281 9.60449C96.1945 8.53809 97.4728 8.00488 98.963 8.00488C100.467 8.00488 101.752 8.53809 102.818 9.60449C103.885 10.6572 104.418 11.9424 104.418 13.46V26.1748ZM100.788 22.5449L100.809 20.6992V20.5967C100.768 20.1455 100.583 19.749 100.255 19.4072C99.8859 19.0518 99.4552 18.874 98.963 18.874C98.4982 18.874 98.0743 19.0518 97.6915 19.4072C97.3361 19.7627 97.1583 20.1934 97.1583 20.6992V20.7402C97.1583 21.2324 97.3361 21.6562 97.6915 22.0117C98.0607 22.3809 98.4845 22.5654 98.963 22.5654L100.788 22.5449ZM110.678 8.06641C112.182 8.06641 113.467 8.59277 114.533 9.64551C115.586 10.7119 116.112 11.9971 116.112 13.501V20.7607C116.112 22.251 115.586 23.5293 114.533 24.5957C113.453 25.6484 112.168 26.1748 110.678 26.1748H108.853V33.4346H105.243V8.0459L110.678 8.06641ZM110.678 22.5654C111.17 22.5654 111.601 22.3877 111.97 22.0322C112.325 21.6768 112.503 21.2529 112.503 20.7607V13.501C112.503 13.0088 112.325 12.585 111.97 12.2295C111.614 11.8467 111.184 11.6553 110.678 11.6553H108.853V22.5654H110.678Z" fill="#F1FAEE"/>
<path d="M57.6818 17.1104V26.1748H52.0626C50.6271 26.1475 49.4034 25.6143 48.3917 24.5752C47.339 23.5361 46.8126 22.2578 46.8126 20.7402H46.7921V15.2852H46.8126C46.8126 13.918 47.2706 12.708 48.1866 11.6553C47.2706 10.6299 46.8126 9.42676 46.8126 8.0459H46.7921V6.24121H46.8126C46.8126 4.72363 47.339 3.43848 48.3917 2.38574C49.4445 1.31934 50.7228 0.786133 52.2267 0.786133C53.7306 0.786133 55.0157 1.31934 56.0822 2.38574C57.1349 3.43848 57.6613 4.72363 57.6613 6.24121H57.6818V8.0459H57.6613C57.6613 9.42676 57.2032 10.6299 56.2872 11.6553C57.2032 12.708 57.6613 13.918 57.6613 15.2852H54.0519C54.0519 14.8066 53.8741 14.3828 53.5187 14.0137C53.1495 13.6582 52.7189 13.4805 52.2267 13.4805C51.7482 13.4805 51.3243 13.6582 50.9552 14.0137C50.5997 14.3691 50.422 14.793 50.422 15.2852V20.7402C50.422 21.2461 50.5997 21.6699 50.9552 22.0117C51.2833 22.3535 51.6525 22.5312 52.0626 22.5449H54.0519V20.7402H52.2267V17.1104H57.6818ZM52.2267 9.87109C52.7189 9.87109 53.1495 9.68652 53.5187 9.31738C53.8741 8.98926 54.0519 8.56543 54.0519 8.0459V6.24121C54.0519 5.73535 53.8741 5.31152 53.5187 4.96973C53.1632 4.60059 52.7325 4.41602 52.2267 4.41602C51.7208 4.41602 51.297 4.60059 50.9552 4.96973C50.5997 5.31152 50.422 5.73535 50.422 6.24121V8.0459C50.422 8.56543 50.5997 8.98926 50.9552 9.31738C51.3243 9.68652 51.7482 9.87109 52.2267 9.87109Z" fill="#E63946"/>
</svg>
