<svg width="39" height="40" viewBox="0 0 39 40" fill="none" xmlns="http://www.w3.org/2000/svg">
<path d="M13.7077 37.5467V31.4312C13.7077 29.8701 14.9825 28.6046 16.555 28.6046H22.3033C23.0585 28.6046 23.7827 28.9024 24.3167 29.4325C24.8507 29.9626 25.1506 30.6816 25.1506 31.4312V37.5467C25.1459 38.1957 25.4022 38.8198 25.8629 39.2804C26.3235 39.741 26.9502 40 27.604 40H31.5258C33.3574 40.0047 35.1156 39.2857 36.4124 38.0016C37.7093 36.7175 38.4381 34.974 38.4381 33.1556V15.7337C38.4381 14.2649 37.7822 12.8717 36.6473 11.9293L23.3062 1.35174C20.9854 -0.502877 17.6603 -0.442996 15.4089 1.49396L2.37213 11.9293C1.18359 12.8439 0.473215 14.2413 0.43811 15.7337V33.1379C0.43811 36.9277 3.53287 40 7.35046 40H11.1827C12.5406 40 13.6441 38.9124 13.6539 37.5645L13.7077 37.5467Z" fill="#414042"/>
</svg>
