<svg xmlns="http://www.w3.org/2000/svg" height="40" viewBox="0 0 68.09 70.27">
  <defs>
    <style>
      .aa8bd8ff-365d-4e1a-9e1d-b066d2f33816 {
        fill: #f6eeee;
      }

      .b3b73da8-6d85-4a13-afea-6edcea8f3d8d {
        fill: #414042;
      }
    </style>
  </defs>
  <g id="bc065068-cfd3-4023-962b-8e6feda47d01" data-name="Layer 2">
    <g id="aa10d5d0-ec46-468a-a348-dd4a72854918" data-name="Layer 1">
      <g>
        <g>
          <path class="aa8bd8ff-365d-4e1a-9e1d-b066d2f33816" d="M55.55,33.55c0,11.84-10.64,19.42-10.64,22.5l0-.08L24,55.87c-.43-3.71-11.46-10.64-11.46-22.32a21.5,21.5,0,0,1,43,0Z"/>
          <path class="b3b73da8-6d85-4a13-afea-6edcea8f3d8d" d="M44.91,56.05c.18,18.49-20.8,18.67-20.88,0a1.1,1.1,0,0,0,0-.18l20.86.1Z"/>
        </g>
        <path class="b3b73da8-6d85-4a13-afea-6edcea8f3d8d" d="M24,55.67l20.9,0h.24V56a17.22,17.22,0,0,1-2.4,9.56A10.64,10.64,0,0,1,39.15,69a9.29,9.29,0,0,1-4.86,1.26,9.43,9.43,0,0,1-4.8-1.48A11,11,0,0,1,26,65.18a15.1,15.1,0,0,1-1.83-4.66A19.05,19.05,0,0,1,23.79,58c0-.41-.06-.83-.08-1.24v-.63a1.7,1.7,0,0,0,0-.26l-.05-.27a6.92,6.92,0,0,0-1.12-2c-.48-.65-1-1.27-1.53-1.9-1.06-1.25-2.14-2.5-3.15-3.81A27.84,27.84,0,0,1,13,39.19a21.11,21.11,0,0,1,3.67-19,21.82,21.82,0,0,1,34.64.1A21.5,21.5,0,0,1,55,39.22a29.74,29.74,0,0,1-4.46,8.83c-1,1.35-2,2.64-3,3.93-.5.65-1,1.29-1.47,2a4.73,4.73,0,0,0-1,2.11h-.4a5.09,5.09,0,0,1,.84-2.46c.41-.74.86-1.44,1.31-2.14.89-1.39,1.83-2.72,2.66-4.11a28,28,0,0,0,3.61-8.65A19.46,19.46,0,0,0,49,22.12a19,19,0,0,0-14.94-6.83,18.18,18.18,0,0,0-8,2.06A18,18,0,0,0,16.49,30a19.25,19.25,0,0,0-.35,4.07A14.35,14.35,0,0,0,16.78,38a24.06,24.06,0,0,0,4.07,7.53c.93,1.21,1.91,2.44,3,3.74.53.66,1.07,1.34,1.64,2.13a10.17,10.17,0,0,1,1.66,3.31c.05.22.09.43.12.65s0,.35.05.53v.74c0,.35,0,.71,0,1.06a15.16,15.16,0,0,0,.26,2,11.69,11.69,0,0,0,1.29,3.66,7,7,0,0,0,5.49,3.84,7.21,7.21,0,0,0,6.24-3.14,11.82,11.82,0,0,0,1.81-3.74,21.22,21.22,0,0,0,.72-4.45l1.76,1.79L34.45,57l-5.22-.4L24,56.07Z"/>
      </g>
      <g>
        <rect class="b3b73da8-6d85-4a13-afea-6edcea8f3d8d" y="33.3" width="6" height="1.5" rx="0.5"/>
        <rect class="b3b73da8-6d85-4a13-afea-6edcea8f3d8d" x="62.09" y="33.3" width="6" height="1.5" rx="0.5"/>
        <rect class="b3b73da8-6d85-4a13-afea-6edcea8f3d8d" x="4.16" y="48.82" width="6" height="1.5" rx="0.5" transform="translate(-23.83 10.22) rotate(-30)"/>
        <rect class="b3b73da8-6d85-4a13-afea-6edcea8f3d8d" x="57.93" y="17.77" width="6" height="1.5" rx="0.5" transform="translate(-1.1 32.95) rotate(-30)"/>
        <rect class="b3b73da8-6d85-4a13-afea-6edcea8f3d8d" x="46.57" y="6.41" width="6" height="1.5" rx="0.5" transform="translate(18.59 46.51) rotate(-60)"/>
        <rect class="b3b73da8-6d85-4a13-afea-6edcea8f3d8d" x="31.05" y="2.25" width="6" height="1.5" rx="0.5" transform="translate(31.05 37.05) rotate(-90)"/>
        <rect class="b3b73da8-6d85-4a13-afea-6edcea8f3d8d" x="15.52" y="6.41" width="6" height="1.5" rx="0.5" transform="translate(21.59 26.78) rotate(-120)"/>
        <rect class="b3b73da8-6d85-4a13-afea-6edcea8f3d8d" x="57.93" y="48.82" width="6" height="1.5" rx="0.5" transform="translate(88.92 122.97) rotate(-150)"/>
        <rect class="b3b73da8-6d85-4a13-afea-6edcea8f3d8d" x="4.16" y="17.77" width="6" height="1.5" rx="0.5" transform="translate(4.1 38.15) rotate(-150)"/>
      </g>
    </g>
  </g>
</svg>
